HIERARCHY
ROOT Hips
{
	OFFSET 0.000000 89.005402 0.000000
	CHANNELS 6 Xposition Yposition Zposition Xrotation Yrotation Zrotation
	JOINT Spine
	{
		OFFSET 0.116900 10.681000 0.373400
		CHANNELS 3 Xrotation Yrotation Zrotation
		JOINT Spine1
		{
			OFFSET 0.000000 13.840401 0.053500
			CHANNELS 3 Xrotation Yrotation Zrotation
			JOINT Spine2
			{
				OFFSET 0.000000 14.712700 -0.366200
				CHANNELS 3 Xrotation Yrotation Zrotation
				JOINT Neck
				{
					OFFSET 0.000000 35.415497 -3.314200
					CHANNELS 3 Xrotation Yrotation Zrotation
					JOINT Head
					{
						OFFSET 0.000000 16.899200 1.218300
						CHANNELS 3 Xrotation Yrotation Zrotation
						JOINT HeadTop_End
						{
							OFFSET 0.000000 22.206207 2.192500
							CHANNELS 3 Xrotation Yrotation Zrotation
							End Site
							{
								OFFSET 0.000000 22.314178 0.000000
							}
						}
					}
				}
				JOINT LeftShoulder
				{
					OFFSET 12.896400 26.716293 -4.548400
					CHANNELS 3 Xrotation Yrotation Zrotation
					JOINT LeftArm
					{
						OFFSET 19.027000 -4.857010 -1.718400
						CHANNELS 3 Xrotation Yrotation Zrotation
						JOINT LeftForeArm
						{
							OFFSET 24.179897 0.000000 0.000000
							CHANNELS 3 Xrotation Yrotation Zrotation
							JOINT LeftHand
							{
								OFFSET 27.156403 0.000000 0.000000
								CHANNELS 3 Xrotation Yrotation Zrotation
								JOINT LeftHandIndex1
								{
									OFFSET 16.441200 0.000000 0.000000
									CHANNELS 3 Xrotation Yrotation Zrotation
									JOINT LeftHandIndex2
									{
										OFFSET 4.821899 0.000000 0.000000
										CHANNELS 3 Xrotation Yrotation Zrotation
										JOINT LeftHandIndex3
										{
											OFFSET 6.386497 0.000000 0.000000
											CHANNELS 3 Xrotation Yrotation Zrotation
											JOINT LeftHandIndex4
											{
												OFFSET 5.188988 0.000000 0.000000
												CHANNELS 3 Xrotation Yrotation Zrotation
												End Site
												{
													OFFSET -0.178703 5.185913 0.000177
												}
											}
										}
									}
								}
								JOINT LeftHandThumb1
								{
									OFFSET 6.534897 -5.032593 5.900300
									CHANNELS 3 Xrotation Yrotation Zrotation
									JOINT LeftHandThumb2
									{
										OFFSET 3.818176 -2.204422 2.204423
										CHANNELS 3 Xrotation Yrotation Zrotation
										JOINT LeftHandThumb3
										{
											OFFSET 3.252098 -1.877594 1.877601
											CHANNELS 3 Xrotation Yrotation Zrotation
											JOINT LeftHandThumb4
											{
												OFFSET 5.251778 -3.032120 3.032117
												CHANNELS 3 Xrotation Yrotation Zrotation
												End Site
												{
													OFFSET 0.000023 6.780014 0.000000
												}
											}
										}
									}
								}
							}
						}
					}
				}
				JOINT RightShoulder
				{
					OFFSET -12.896300 26.716293 -4.548400
					CHANNELS 3 Xrotation Yrotation Zrotation
					JOINT RightArm
					{
						OFFSET -19.027000 -4.857010 -1.718400
						CHANNELS 3 Xrotation Yrotation Zrotation
						JOINT RightForeArm
						{
							OFFSET -24.179897 0.000000 0.000000
							CHANNELS 3 Xrotation Yrotation Zrotation
							JOINT RightHand
							{
								OFFSET -27.156403 0.000000 0.000000
								CHANNELS 3 Xrotation Yrotation Zrotation
								JOINT RightHandThumb1
								{
									OFFSET -6.591202 -4.852203 5.988100
									CHANNELS 3 Xrotation Yrotation Zrotation
									JOINT RightHandThumb2
									{
										OFFSET -3.818176 -2.204422 2.204423
										CHANNELS 3 Xrotation Yrotation Zrotation
										JOINT RightHandThumb3
										{
											OFFSET -3.252098 -1.877594 1.877601
											CHANNELS 3 Xrotation Yrotation Zrotation
											JOINT RightHandThumb4
											{
												OFFSET -5.251778 -3.032120 3.032117
												CHANNELS 3 Xrotation Yrotation Zrotation
												End Site
												{
													OFFSET -0.000023 6.780014 0.000000
												}
											}
										}
									}
								}
								JOINT RightHandIndex1
								{
									OFFSET -16.029404 0.000000 0.000000
									CHANNELS 3 Xrotation Yrotation Zrotation
									JOINT RightHandIndex2
									{
										OFFSET -5.213303 0.000000 0.000000
										CHANNELS 3 Xrotation Yrotation Zrotation
										JOINT RightHandIndex3
										{
											OFFSET -6.386528 0.000000 0.000000
											CHANNELS 3 Xrotation Yrotation Zrotation
											JOINT RightHandIndex4
											{
												OFFSET -5.189026 0.000000 0.000000
												CHANNELS 3 Xrotation Yrotation Zrotation
												End Site
												{
													OFFSET 0.236702 5.183624 0.001972
												}
											}
										}
									}
								}
							}
						}
					}
				}
			}
		}
	}
	JOINT LeftUpLeg
	{
		OFFSET 14.073000 -7.904099 -1.463000
		CHANNELS 3 Xrotation Yrotation Zrotation
		JOINT LeftLeg
		{
			OFFSET -0.109806 -34.073280 4.093200
			CHANNELS 3 Xrotation Yrotation Zrotation
			JOINT LeftFoot
			{
				OFFSET 0.109806 -29.899420 -6.319000
				CHANNELS 3 Xrotation Yrotation Zrotation
				JOINT LeftToeBase
				{
					OFFSET 1.551100 -14.988700 20.535801
					CHANNELS 3 Xrotation Yrotation Zrotation
					JOINT LeftToe_End
					{
						OFFSET 0.221200 0.570800 13.248301
						CHANNELS 3 Xrotation Yrotation Zrotation
						End Site
						{
							OFFSET 0.000000 13.262435 0.000000
						}
					}
				}
			}
		}
	}
	JOINT RightUpLeg
	{
		OFFSET -13.839300 -7.904099 -1.463000
		CHANNELS 3 Xrotation Yrotation Zrotation
		JOINT RightLeg
		{
			OFFSET 0.109694 -34.073219 4.093300
			CHANNELS 3 Xrotation Yrotation Zrotation
			JOINT RightFoot
			{
				OFFSET -0.109694 -29.899384 -6.319200
				CHANNELS 3 Xrotation Yrotation Zrotation
				JOINT RightToeBase
				{
					OFFSET -1.551100 -14.988700 20.535801
					CHANNELS 3 Xrotation Yrotation Zrotation
					JOINT RightToe_End
					{
						OFFSET -0.221200 0.570900 13.248299
						CHANNELS 3 Xrotation Yrotation Zrotation
						End Site
						{
							OFFSET 0.000000 13.262440 0.000000
						}
					}
				}
			}
		}
	}
}
MOTION
Frames: 4
Frame Time: 0.033333
-0.290054 86.826797 1.193162 -2.831491 -40.520261 -3.059738 3.899027 0.619260 4.102341 1.462596 0.138874 1.362179 1.462821 0.168997 1.358058 -1.527603 2.340126 3.264499 17.017824 17.075478 -6.267300 -0.000000 0.000002 -0.000001 1.049444 1.547977 -10.551775 -5.255410 0.734866 -72.610949 0.000000 -26.824190 -0.000003 25.471483 -16.073120 14.580128 0.332627 -2.971047 -1.456193 0.816623 2.985355 -30.591195 0.837555 3.020405 -30.990505 0.000000 0.000000 0.000001 4.972932 -0.919225 4.455762 7.416829 13.559448 3.778486 -10.276937 -8.025409 12.851091 -0.000003 0.000000 -0.000001 3.235674 2.387749 -0.115052 4.665286 26.856382 61.431165 0.000179 105.578544 -0.000181 -22.814352 -6.276918 -3.173409 29.860047 10.904002 19.100465 3.489968 -32.554396 -30.342928 -8.577702 -59.813278 -30.590850 -0.000000 0.000000 -0.000001 0.661326 1.607739 19.726691 2.340467 -4.041151 60.141325 3.287207 -4.451543 72.875106 0.000000 -0.000000 0.000002 -14.707759 3.892430 15.798344 9.966569 8.971297 0.306679 10.884784 2.274163 -9.352553 -0.321374 0.002738 -0.485593 0.000000 0.000002 -0.000000 4.391210 -12.191380 2.027515 14.475334 1.194286 0.059101 -16.045373 1.029804 -5.772359 -0.145368 -0.000574 0.218724 -0.000000 0.000002 0.000000 
-0.306625 86.735786 1.390551 -2.503462 -40.191910 -1.902924 4.116374 0.303094 2.995271 1.560662 0.046325 1.195664 1.561416 0.072550 1.192643 -1.682752 2.365747 3.256525 16.514636 17.070586 -5.792874 -0.000000 -0.000002 0.000000 1.070595 1.293739 -10.357092 -5.877944 3.469643 -71.625284 -0.000003 -30.501135 0.000004 28.033127 -14.767047 13.701309 0.277733 -2.875848 -2.391649 0.851139 3.042925 -31.247846 0.852968 3.045919 -31.282174 -0.000001 0.000000 -0.000001 4.902070 -0.970661 4.395927 7.439323 13.808341 3.774108 -10.168118 -7.550223 12.988268 0.000001 -0.000001 0.000000 3.230392 2.363047 -0.042080 4.766594 27.490359 61.544799 0.000101 106.874996 -0.000102 -23.892087 -7.034653 -2.539262 29.860047 10.904001 19.100467 3.489967 -32.554396 -30.342921 -8.577709 -59.813278 -30.590850 -0.000002 -0.000000 -0.000000 0.661326 1.607739 19.726691 2.340467 -4.041152 60.141325 3.287207 -4.451543 72.875113 0.000000 -0.000000 -0.000001 -14.735588 3.682823 14.733251 9.691799 8.946273 0.302566 11.602313 2.389390 -10.000322 -0.562545 0.006924 -0.774065 -0.000000 -0.000000 -0.000000 3.364047 -12.361275 0.729332 16.133832 0.990284 0.047627 -17.148829 0.978097 -5.496584 -0.142276 -0.000537 0.214087 0.000000 -0.000001 0.000000 
-0.271770 86.260834 1.797372 -2.166286 -39.759726 -0.911376 4.398073 -0.001790 1.977147 1.672013 -0.024770 1.020358 1.672914 -0.002531 1.018357 -1.843410 2.344574 3.269831 15.875159 16.882385 -5.178847 -0.000000 -0.000001 -0.000000 1.125571 1.021544 -9.873664 -6.130625 5.971366 -70.156370 -0.000035 -34.813741 -0.000047 30.837300 -13.362846 12.398725 0.151731 -2.636507 -4.651814 0.937352 3.180421 -32.835499 0.890815 3.107270 -31.987333 0.000001 0.000001 -0.000000 4.730712 -1.094612 4.250708 7.493308 14.410021 3.763194 -9.910124 -6.400194 13.314504 -0.000000 -0.000000 -0.000000 3.213271 2.365596 0.102713 4.480582 27.692257 62.002722 0.000004 107.778131 -0.000002 -25.231528 -8.083494 -1.480471 29.860054 10.904003 19.100465 3.489966 -32.554396 -30.342921 -8.577703 -59.813278 -30.590843 -0.000002 -0.000001 0.000001 0.661325 1.607739 19.726691 2.340467 -4.041152 60.141325 3.287207 -4.451543 72.875113 0.000000 0.000000 -0.000002 -16.649616 2.708885 14.062199 13.378243 9.045852 0.208592 10.843058 2.122330 -11.379088 -1.207380 0.019095 -0.906309 0.000000 -0.000001 0.000000 1.761898 -12.495672 -0.687987 19.410458 0.714114 0.031327 -19.296691 0.905297 -5.037693 -0.134862 -0.000479 0.202941 -0.000000 -0.000002 -0.000000 
-0.199475 85.631989 2.367790 -1.827314 -39.441696 -0.279193 4.727649 -0.171635 1.318594 1.785937 -0.053635 0.895403 1.786738 -0.033288 0.893924 -1.986092 2.292348 3.296100 15.208461 16.614976 -4.662339 -0.000000 -0.000000 0.000000 1.221311 0.815893 -9.152894 -5.695026 8.335968 -68.662164 -0.000009 -39.415843 0.000007 33.621046 -11.449837 11.392822 -0.029841 -2.230397 -8.282574 1.083838 3.396344 -35.389105 0.953250 3.204904 -33.121271 0.000000 0.000001 -0.000002 4.455220 -1.292804 4.015546 7.578995 15.377566 3.744875 -9.510276 -4.547422 13.824070 -0.000001 0.000002 -0.000001 3.182470 2.406784 0.320602 3.991463 27.653734 62.558802 0.000041 108.045472 -0.000056 -27.069397 -9.339596 -0.281171 29.860047 10.904002 19.100465 3.489962 -32.554396 -30.342921 -8.577707 -59.813271 -30.590846 -0.000000 -0.000000 -0.000001 0.661326 1.607739 19.726691 2.340467 -4.041151 60.141325 3.287208 -4.451543 72.875113 0.000000 -0.000000 -0.000000 -19.521517 1.506036 13.757437 18.673643 9.075584 0.292030 9.658182 1.695277 -12.677186 -2.681002 0.015813 -0.337601 0.000000 0.000000 0.000000 0.290980 -12.601743 -1.858119 22.698167 0.624949 0.031683 -21.509019 0.807338 -4.522023 -0.130379 -0.000440 0.196205 0.000000 -0.000001 -0.000000 
